<svg width="356" height="444" viewBox="0 0 356 444" fill="none" xmlns="http://www.w3.org/2000/svg">
<g opacity="0.06">
<path d="M-57.7495 307.293L48.0147 307.293L48.0147 414.649C48.0147 430.822 61.1106 444 77.3309 444L193.067 444C209.22 444 222.383 430.888 222.383 414.649L222.383 356.944L177.245 356.944L177.245 398.808L93.2188 398.808L93.2188 181.035L130.313 181.035L130.313 135.843L48.0812 135.843L48.0812 262.101L-41.8616 262.101L-41.8616 181.035L3.14301 181.035L3.14302 135.843L-57.683 135.843C-73.8368 135.843 -86.9992 148.955 -86.9992 165.195L-86.9993 277.942C-86.9993 294.115 -73.9033 307.293 -57.7495 307.293Z" fill="#247CFF"/>
<path d="M93.1515 46.1918L177.178 46.1918L177.178 262.101L139.419 262.101L139.419 307.293L222.316 307.293L222.316 181.102L310.862 181.102L310.862 262.101L266.589 262.101L266.589 307.293L326.684 307.293C342.904 307.293 356 294.115 356 277.942L356 165.195C356 149.022 342.904 135.843 326.684 135.843L222.316 135.843L222.316 30.2849C222.316 14.1117 209.22 0.933459 192.999 0.933457L77.2636 0.933447C61.1098 0.933446 47.9475 14.0451 47.9475 30.2849L47.9475 90.9844L93.0851 90.9844L93.0851 46.1918L93.1515 46.1918Z" fill="#247CFF"/>
</g>
</svg>
