<svg width="39" height="39" viewBox="0 0 39 39" fill="none" xmlns="http://www.w3.org/2000/svg">
<path d="M35.5119 12.7006H26.4344V3.48645C26.4344 2.09834 25.3104 0.967285 23.9182 0.967285H13.9849C12.5984 0.967285 11.4688 2.09263 11.4688 3.48645V8.43911H15.3428V4.84601H22.5546V23.537H19.3709V27.4157H26.4287V16.5793H34.1483V23.537H30.2856V27.4157H35.5062C36.8926 27.4157 38.0223 26.2904 38.0223 24.8965V15.2197C38.0223 13.8316 36.8984 12.7006 35.5119 12.7006Z" fill="#247CFF"/>
<path d="M22.5597 35.1104H15.3479V16.5794H18.5887V12.7007H11.4738V23.5314H3.87406V16.5794H7.67396V12.7007H2.51614C1.12399 12.7007 0 13.8317 0 15.2199V24.8967C0 26.2848 1.12399 27.4158 2.51614 27.4158H11.4738V36.4757C11.4738 37.8638 12.5978 38.9949 13.99 38.9949H23.9233C25.3098 38.9949 26.4395 37.8695 26.4395 36.4757V31.266H22.5654V35.1104H22.5597Z" fill="#247CFF"/>
</svg>
